<svg id="Livello_1" xmlns="http://www.w3.org/2000/svg" version="1.1" viewBox="0 0 40 40">
  <path d="M32.4,7.9h0c-4.2-4.3-9.5-5.9-14.7-4.6-6,1.6-11.3,7-13.1,13.6-.8,3.1-.9,6.3-.2,9.4.8,3.4,2.6,6.5,5.3,9.2.2.2.4.3.7.3s.5-.1.7-.4l7-8.6c4.1,3.4,10.2,3.2,14.1-.6,2.5-2.4,3.8-5.6,3.9-9,0-3.4-1.3-6.7-3.7-9.2ZM5.9,21.4c.2-3.8,1.6-7.5,4-10.6l6.9,4.1c-1.1,1.4-1.8,3.2-1.9,5l-9,1.5h0ZM5.9,23.2l9.1-1.5c.3,1.4.9,2.6,1.8,3.8l-6.5,7.9c-2.7-3-4.2-6.4-4.5-10.2ZM11.1,9.4h.1c2.4-2.5,5.5-4.1,8.6-4.5l1,7.1c-1,.3-1.9.7-2.7,1.4l-7-4.1ZM30.5,8.7l-3.8,4.6c-1.2-1-2.6-1.5-4.1-1.5l-.9-6.9c3.1,0,6.1,1.4,8.8,3.9h0ZM17,18.3c.6-2.2,2.3-4,4.4-4.5.5-.1,1-.2,1.4-.2,1.4,0,2.5.6,3.3,1.7,1.1,1.6,1.3,4.1.4,5.5-.6.9-1.6,1.3-3,1-.6-.2-1.4-.1-1.6.5,0,.2,0,.4,0,.6.2.4.7.6.9.6h0c1.4.4,2.8.1,4-.7l3.4,2.7c-3.4,2.6-8.3,2.3-11.4-.8-1.7-1.8-2.4-4.1-1.7-6.4h0ZM28,14.6l3.7-4.6c3.4,4.2,3.3,10.1-.2,14.2l-3.4-2.8c1.4-2,1.4-4.8,0-6.8h0Z"/>
</svg>