<svg id="Livello_1" data-name="Livello 1" xmlns="http://www.w3.org/2000/svg" viewBox="0 0 40 40">
  <def>
    <style>.cls-1{fill:#0000ff;}</style>
  </def>
  <path class="cls-1" d="M30.1,12.32c-5.38,0-6.76-3.89-7.76-6.73-.8-2.28-1.24-3.2-2.34-3.2-1.05,0-1.46.91-2.21,3.15-.96,2.86-2.27,6.78-7.69,6.78s-6.76-3.89-7.76-6.73C1.54,3.31,1.11,2.39,0,2.39V0c2.92,0,3.82,2.55,4.61,4.8.97,2.75,1.81,5.13,5.49,5.13,3.44,0,4.34-1.94,5.41-5.15.75-2.24,1.6-4.78,4.49-4.78s3.82,2.55,4.61,4.8c.97,2.75,1.81,5.13,5.49,5.13,3.44,0,4.34-1.94,5.41-5.15.75-2.24,1.6-4.78,4.49-4.78v2.39c-1.05,0-1.46.91-2.21,3.15-.96,2.86-2.27,6.78-7.69,6.78Z"/>
</svg>