<svg id="Livello_1" xmlns="http://www.w3.org/2000/svg" version="1.1" viewBox="0 0 40 40">
  <path d="M28.4,13.6c-4.5,0-5.6-3.3-6.5-5.6-.7-1.9-1-2.7-2-2.7s-1.3.8-1.9,2.7c-.8,2.4-1.9,5.7-6.4,5.7s-5.6-3.3-6.5-5.6c-.7-1.9-1-2.7-1.9-2.7v-2c2.4,0,3.2,2.1,3.8,4,.8,2.3,1.5,4.3,4.6,4.3s3.7-2,4.5-4.3c.6-1.9,1.3-4,3.8-4s3.2,2.1,3.8,4c.8,2.3,1.5,4.3,4.6,4.3s3.6-1.6,4.5-4.3c.6-1.9,1.3-4,3.7-4v2c-.9,0-1.2.8-1.8,2.6-.8,2.4-1.9,5.7-6.4,5.7Z"/>
  <path d="M28.4,25.2c-4.5,0-5.6-3.3-6.5-5.6-.7-1.9-1-2.7-2-2.7s-1.3.8-1.9,2.7c-.8,2.4-1.9,5.7-6.4,5.7s-5.6-3.3-6.5-5.6c-.7-1.9-1-2.7-1.9-2.7v-2c2.4,0,3.2,2.1,3.8,4,.8,2.3,1.5,4.3,4.6,4.3s3.7-2,4.5-4.3c.6-1.9,1.3-4,3.8-4s3.2,2.1,3.8,4c.8,2.3,1.5,4.3,4.6,4.3s3.6-1.6,4.5-4.3c.6-1.9,1.3-4,3.7-4v2c-.9,0-1.2.8-1.8,2.6-.8,2.4-1.9,5.7-6.4,5.7Z"/>
  <path d="M28.4,36.8c-4.5,0-5.6-3.3-6.5-5.6-.7-1.9-1-2.7-2-2.7s-1.3.8-1.9,2.7c-.8,2.4-1.9,5.7-6.4,5.7s-5.6-3.3-6.5-5.6c-.7-1.9-1-2.7-2-2.7v-2c2.4,0,3.2,2.1,3.8,4,.8,2.3,1.5,4.3,4.6,4.3s3.7-2,4.5-4.3c.6-1.9,1.3-4,3.8-4s3.2,2.1,3.8,4c.8,2.3,1.5,4.3,4.6,4.3s3.6-1.6,4.5-4.3c.6-1.9,1.3-4,3.7-4v2c-.9,0-1.2.8-1.8,2.6-.8,2.4-1.9,5.7-6.4,5.7Z"/>
</svg>