<?xml version="1.0" encoding="UTF-8"?>
<svg id="Livello_1" data-name="Livello 1" xmlns="http://www.w3.org/2000/svg" viewBox="0 0 40 40">
  <path d="M31.61,16.51v-.25c.01-3.15-2.28-5.78-5.37-6.23.04-.29.06-.58.06-.87,0-3.47-2.82-6.29-6.29-6.29s-6.29,2.82-6.29,6.29c0,.29.02.58.06.87-3.09.45-5.39,3.08-5.39,6.23,0,1.28.38,2.5,1.1,3.55-.72,1.04-1.1,2.27-1.1,3.55,0,3.47,2.82,6.29,6.29,6.29.76,0,1.46-.13,2.09-.37.85-.29,1.62-.76,2.27-1.38v7.88c0,.54.44.97.97.97s.97-.44.97-.97v-12.02l3.27-3.27c.18-.18.29-.43.29-.69s-.1-.5-.29-.68c-.18-.18-.43-.28-.68-.28h0c-.26,0-.5.1-.68.28l-1.9,1.9v-8.31c0-.54-.43-.97-.97-.97s-.97.44-.97.97v2.99l-1.9-1.9c-.18-.18-.43-.29-.69-.29h0c-.26,0-.5.1-.68.29-.18.18-.29.43-.29.69,0,.26.1.5.29.68l3.27,3.27v4.92c0,1.85-1.17,3.5-2.93,4.1-.44.17-.92.25-1.42.25-2.4,0-4.36-1.96-4.36-4.36,0-1.07.4-2.1,1.11-2.9.34-.37.34-.93,0-1.3-.72-.8-1.12-1.83-1.12-2.9,0-2.4,1.96-4.36,4.36-4.36.06,0,.12,0,.16,0,.35.05.69-.07.91-.35.22-.27.28-.64.15-.96-.17-.44-.25-.92-.25-1.44,0-2.4,1.96-4.36,4.36-4.36s4.36,1.96,4.36,4.36c0,.52-.09,1-.25,1.44-.12.32-.07.69.15.96.22.27.57.4.91.35.04,0,.07,0,.16,0,2.4,0,4.36,1.96,4.36,4.36,0,1.07-.4,2.1-1.11,2.9-.34.37-.34.93,0,1.3.72.8,1.12,1.83,1.12,2.9,0,2.4-1.96,4.36-4.36,4.36-.5,0-.98-.09-1.43-.25-.5-.19-1.06.06-1.25.55-.19.5.05,1.06.55,1.26.66.25,1.37.38,2.12.38,3.47,0,6.29-2.82,6.29-6.29,0-1.28-.38-2.5-1.1-3.55.67-.97,1.05-2.11,1.1-3.3Z"/>
</svg>