<?xml version="1.0" encoding="UTF-8"?>
<svg id="Livello_1" xmlns="http://www.w3.org/2000/svg" version="1.1" viewBox="0 0 40 40">
  <!-- Generator: Adobe Illustrator 30.1.0, SVG Export Plug-In . SVG Version: 2.1.1 Build 136)  -->
  <path d="M36.2,36.8h-13.9v-7.7c0-1.3-1-2.3-2.3-2.3s-2.3,1-2.3,2.3v7.7H3.8v-9.4h2.3v-10.7h-2.3V3.2h10.9v4.8s0-4.8,0-4.8h10.6v4.8s0-4.8,0-4.8h10.9v13.4h-2.4v10.7h2.4v9.4ZM24.3,34.8h9.9v-5.4h-2.4v-14.7h2.4V5.2h-6.9v4.8h-4v-4.8h-6.7v4.8h-4v-4.8h-6.9v9.4h2.3v14.7h-2.3v5.4h9.9v-5.7c0-2.4,1.9-4.3,4.3-4.3s4.3,1.9,4.3,4.3v5.7Z"/>
</svg>